<svg width="78" height="63" viewBox="0 0 78 63" fill="none" xmlns="http://www.w3.org/2000/svg">
<path d="M72.5983 46.4374C72.9345 45.9992 72.8519 45.3715 72.4138 45.0353L65.2739 39.5561C64.8357 39.2198 64.208 39.3024 63.8717 39.7406C63.5355 40.1787 63.6181 40.8065 64.0563 41.1427L70.4028 46.0131L65.5324 52.3597C65.1962 52.7978 65.2788 53.4256 65.717 53.7618C66.1551 54.098 66.7828 54.0154 67.1191 53.5773L72.5983 46.4374ZM55.4261 48.9927L71.9354 46.82L71.6745 44.8371L55.1652 47.0098L55.4261 48.9927Z" fill="black"/>
<path d="M14.8372 1C5.5 36.7464 31.5 52.2464 60.271 47.3013" stroke="black" stroke-width="2"/>
</svg>
